SplineFontDB: 3.0
FontName: A-Industrial-Black
FullName: A Industrial Black
FamilyName: A Industrial Black
Weight: Black
Copyright: Copyright (c) 2017, Asabina GmbH <type.industrial@asabina.de>
UComments: "A decorative type used in the wordmark for Asabina Gmbh. The type intents to look industrial and resemble some attributes one may find in typefaces associated with sci-fi productions."
FontLog: "2017-9-16: Starting a prototype in FontForge (http://fontforge.org) based on some characters designed in Inkscape"
Version: 0.1
ItalicAngle: 0
UnderlinePosition: -204.395
UnderlineWidth: 102.198
Ascent: 1428
Descent: 620
InvalidEm: 0
LayerCount: 2
Layer: 0 0 "Back" 1
Layer: 1 0 "Fore" 0
XUID: [1021 1019 -1955934214 2614676]
FSType: 0
OS2Version: 0
OS2_WeightWidthSlopeOnly: 0
OS2_UseTypoMetrics: 1
CreationTime: 1505574909
ModificationTime: 1505729158
PfmFamily: 17
TTFWeight: 400
TTFWidth: 5
LineGap: 184
VLineGap: 0
OS2TypoAscent: 0
OS2TypoAOffset: 1
OS2TypoDescent: 0
OS2TypoDOffset: 1
OS2TypoLinegap: 184
OS2WinAscent: 0
OS2WinAOffset: 1
OS2WinDescent: 0
OS2WinDOffset: 1
HheadAscent: 0
HheadAOffset: 1
HheadDescent: 0
HheadDOffset: 1
OS2Vendor: 'PfEd'
MarkAttachClasses: 1
DEI: 91125
LangName: 1033
Encoding: UnicodeBmp
UnicodeInterp: none
NameList: AGL For New Fonts
DisplaySize: -128
AntiAlias: 1
FitToEm: 0
WinInfo: 18 9 4
BeginPrivate: 0
EndPrivate
Grid
2043.95214844 2274.65625 m 0
 2043.95214844 -2072.28417969 l 1024
  Named: "2022"
102.197265625 2274.65625 m 0
 102.197265625 -2072.28417969 l 1024
  Named: "2"
-202.37109375 -613.185546875 m 0
 2274.65625 -613.185546875 l 1024
  Named: "s3"
-202.37109375 -408.790039062 m 0
 2274.65625 -408.790039062 l 1024
  Named: "s2"
-202.37109375 -204.395507812 m 0
 2274.65625 -204.395507812 l 1024
  Named: "s1"
-202.37109375 1430.76660156 m 0
 2274.65625 1430.76660156 l 1024
  Named: "n7"
-202.37109375 1226.37109375 m 0
 2274.65625 1226.37109375 l 1024
  Named: "n6"
-202.37109375 1021.9765625 m 0
 2274.65625 1021.9765625 l 1024

StartChar: a
Encoding: 97 97 0
Width: 1429
VWidth: 0
Flags: HW
HStem: 0 409<409 818> 613 409<409 818>
LayerCount: 2
Fore
SplineSet
409 409 m 1
 541 409 686 409 818 409 c 1
 818 613 l 1
 681 613 546 613 409 613 c 1
 409 409 l 1
0 0 m 1
 0 341 0 681 0 1022 c 1
 272 1022 546 1022 818 1022 c 1
 818 1226 l 1
 1227 1022 l 1
 1227 0 l 1
 818 0 409 0 0 0 c 1
EndSplineSet
EndChar

StartChar: s
Encoding: 115 115 1
Width: 1429
VWidth: 0
Flags: HW
HStem: 0 409<0 818> 613 409<0 91 409 818>
LayerCount: 2
Fore
SplineSet
0 0 m 25
 0 409 l 17
 272 409 546 409 818 409 c 9
 818 613 l 25
 0 613 l 25
 0 1022 l 17
 129 1085 262 1151 409 1226 c 9
 409 1022 l 17
 681 1022 955 1022 1227 1022 c 9
 1227 0 l 25
 0 0 l 25
EndSplineSet
EndChar

StartChar: b
Encoding: 98 98 2
Width: 1429
VWidth: 0
Flags: HW
HStem: 0 409<409 818> 613 409<409 818> 1411 20G<0 409>
VStem: 0 409<409 613 1022 1431>
LayerCount: 2
Fore
SplineSet
409 613 m 25
 409 409 l 25
 818 409 l 25
 818 613 l 25
 409 613 l 25
0 1431 m 25
 409 1431 l 25
 409 1022 l 25
 1227 1022 l 25
 1227 0 l 25
 0 0 l 25
 0 1431 l 25
EndSplineSet
EndChar

StartChar: i
Encoding: 105 105 3
Width: 611
VWidth: 0
Flags: HW
HStem: 0 21G<0 409> 1002 20G<0 409>
VStem: 0 409<0 1022>
LayerCount: 2
Fore
SplineSet
0 0 m 25
 0 1022 l 25
 409 1022 l 25
 409 0 l 25
 0 0 l 25
EndSplineSet
EndChar

StartChar: n
Encoding: 110 110 4
Width: 1429
VWidth: 0
Flags: HW
HStem: 0 21G<0 409 818 1227> 613 409<409 818>
VStem: 0 409<0 613> 818 409<0 613>
LayerCount: 2
Fore
SplineSet
0 0 m 25
 0 1022 l 25
 1227 1022 l 25
 1227 0 l 25
 818 0 l 25
 818 613 l 25
 409 613 l 25
 409 0 l 25
 0 0 l 25
EndSplineSet
EndChar

StartChar: q
Encoding: 113 113 5
Width: 1429
VWidth: 0
Flags: HW
HStem: -409 21G<818 858> 0 409<409 818> 613 409<409 818>
VStem: 818 409<-204 0 409 613>
LayerCount: 2
Fore
SplineSet
409 409 m 25
 818 409 l 25
 818 613 l 17
 681 613 546 613 409 613 c 9
 409 409 l 25
0 0 m 1
 0 1022 l 25
 1227 1022 l 1
 1227 -204 l 1
 818 -409 l 1
 818 0 l 1
 0 0 l 1
EndSplineSet
EndChar

StartChar: c
Encoding: 99 99 6
Width: 1429
VWidth: 0
Flags: HW
HStem: 0 409<409 1227> 613 409<409 1227>
LayerCount: 2
Fore
SplineSet
0 0 m 25
 0 1022 l 25
 1227 1022 l 25
 1227 613 l 25
 409 613 l 25
 409 409 l 25
 1227 409 l 25
 1227 0 l 25
 0 0 l 25
EndSplineSet
EndChar

StartChar: d
Encoding: 100 100 7
Width: 1429
VWidth: 0
Flags: HW
HStem: 0 409<409 818> 613 409<409 818> 1411 20G<818 1227>
VStem: 818 409<409 613 1022 1431>
LayerCount: 2
Fore
SplineSet
409 613 m 9
 409 409 l 25
 818 409 l 25
 818 613 l 17
 681 613 546 613 409 613 c 9
0 0 m 25
 0 1022 l 25
 818 1022 l 25
 818 1431 l 25
 1227 1431 l 25
 1227 0 l 25
 0 0 l 25
EndSplineSet
EndChar

StartChar: e
Encoding: 101 101 8
Width: 1429
VWidth: 0
Flags: HW
HStem: 0 409<409 818> 613 409<409 818>
LayerCount: 2
Fore
SplineSet
409 613 m 25
 409 409 l 17
 546 409 681 409 818 409 c 9
 818 613 l 25
 409 613 l 25
0 0 m 25
 0 1022 l 25
 1227 1022 l 25
 1227 0 l 25
 409 0 l 25
 409 -204 l 25
 0 0 l 25
EndSplineSet
EndChar

StartChar: f
Encoding: 102 102 9
Width: 1429
VWidth: 0
Flags: HW
HStem: -409 21G<369 409> 0 409<409 818> 613 409<409 1227>
VStem: 0 409<-204 0 409 613>
LayerCount: 2
Fore
SplineSet
0 1022 m 25
 1227 1022 l 25
 1227 613 l 25
 409 613 l 25
 409 409 l 1
 1227 409 l 25
 1227 0 l 25
 409 0 l 1
 409 -409 l 25
 0 -204 l 25
 0 1022 l 25
EndSplineSet
EndChar

StartChar: g
Encoding: 103 103 10
Width: 1429
VWidth: 0
Flags: HW
HStem: -613 409<0 409 818 1227> 613 409<409 818>
VStem: 0 1226<-613 -204 0 409 613 1022>
LayerCount: 2
Fore
SplineSet
409 409 m 25
 818 409 l 25
 818 613 l 17
 681 613 546 613 409 613 c 9
 409 409 l 25
1227 -613 m 1
 511 -613 l 25
 511 -204 l 25
 818 -204 l 25
 818 0 l 25
 0 0 l 1
 0 1022 l 1
 409 1022 818 1022 1227 1022 c 1
 1227 -613 l 1
EndSplineSet
EndChar

StartChar: h
Encoding: 104 104 11
Width: 1429
VWidth: 0
Flags: HW
HStem: 0 21G<0 409 818 1227> 613 409<409 818> 1411 20G<0 409>
VStem: 0 409<0 613 1022 1431> 818 409<0 613>
LayerCount: 2
Fore
SplineSet
0 0 m 25
 0 1431 l 25
 409 1431 l 25
 409 1022 l 25
 1227 1022 l 25
 1227 0 l 25
 818 0 l 25
 818 613 l 25
 409 613 l 25
 409 0 l 25
 0 0 l 25
EndSplineSet
EndChar

StartChar: j
Encoding: 106 106 12
Width: 611
VWidth: 0
Flags: HW
HStem: -409 21G<0 41> 1002 20G<0 409>
VStem: 0 409<-204 1022>
LayerCount: 2
Fore
SplineSet
0 1022 m 25
 409 1022 l 25
 409 -204 l 25
 0 -409 l 25
 0 1022 l 25
EndSplineSet
EndChar

StartChar: k
Encoding: 107 107 13
Width: 1429
VWidth: 0
Flags: HW
HStem: 0 21G<0 409 613 1227> 613 409<409 613 1022 1227> 1411 20G<0 409>
VStem: 0 409<0 613 1022 1431> 613 613<0 409>
LayerCount: 2
Fore
SplineSet
1022 613 m 29
 1022 409 l 25
 1227 409 l 25
 1227 0 l 25
 613 0 l 25
 613 613 l 25
 409 613 l 25
 409 0 l 25
 0 0 l 25
 0 1431 l 25
 409 1431 l 25
 409 1022 l 25
 1227 1022 l 25
 1022 613 l 29
EndSplineSet
EndChar

StartChar: l
Encoding: 108 108 14
Width: 611
VWidth: 0
Flags: HW
HStem: 0 21G<0 409> 1411 20G<0 409>
VStem: 0 409<0 1431>
LayerCount: 2
Fore
SplineSet
0 0 m 25
 0 1431 l 25
 409 1431 l 25
 409 0 l 25
 0 0 l 25
EndSplineSet
EndChar

StartChar: m
Encoding: 109 109 15
Width: 1837
VWidth: 0
Flags: HW
HStem: 0 21G<0 409 613 1022 1227 1635> 613 409<409 613 1022 1227>
VStem: 0 409<0 613> 613 409<0 613> 1227 409<0 613>
CounterMasks: 1 38
LayerCount: 2
Fore
SplineSet
0 0 m 25
 0 1022 l 25
 1635 1022 l 25
 1635 0 l 25
 1227 0 l 25
 1227 613 l 25
 1022 613 l 25
 1022 0 l 25
 613 0 l 25
 613 613 l 25
 409 613 l 25
 409 0 l 25
 0 0 l 25
EndSplineSet
EndChar

StartChar: o
Encoding: 111 111 16
Width: 1429
VWidth: 0
Flags: HW
HStem: 0 409<409 818> 613 409<409 818>
LayerCount: 2
Fore
SplineSet
409 409 m 25
 818 409 l 25
 818 613 l 17
 681 613 546 613 409 613 c 9
 409 409 l 25
0 0 m 25
 0 1022 l 25
 1227 1022 l 25
 1227 0 l 25
 0 0 l 25
EndSplineSet
EndChar

StartChar: p
Encoding: 112 112 17
Width: 1429
VWidth: 0
Flags: HW
HStem: -409 21G<0 409> 0 409<409 818> 613 409<409 818>
VStem: 0 409<-409 0 409 613>
LayerCount: 2
Fore
SplineSet
409 409 m 25
 818 409 l 25
 818 613 l 17
 681 613 546 613 409 613 c 9
 409 409 l 25
0 -409 m 1
 0 1022 l 25
 1227 1022 l 25
 1227 0 l 17
 409 0 l 1
 409 -409 l 1
 0 -409 l 1
EndSplineSet
EndChar

StartChar: r
Encoding: 114 114 18
Width: 1429
VWidth: 0
Flags: HW
HStem: 0 21G<0 409> 613 409<409 1227>
VStem: 0 409<0 613>
LayerCount: 2
Fore
SplineSet
0 0 m 25
 0 1022 l 25
 1227 1022 l 25
 1227 613 l 25
 409 613 l 25
 409 0 l 25
 0 0 l 25
EndSplineSet
EndChar

StartChar: t
Encoding: 116 116 19
Width: 1429
VWidth: 0
Flags: HW
HStem: 0 409<409 1227> 613 409<409 818> 1411 20G<369 409>
VStem: 0 409<409 613 1022 1226>
LayerCount: 2
Fore
SplineSet
0 0 m 17
 0 406 0 820 0 1226 c 9
 409 1431 l 25
 409 1022 l 1
 1227 1022 l 1
 1227 613 l 5
 409 613 l 1
 409 409 l 25
 1227 409 l 25
 1227 0 l 25
 0 0 l 17
EndSplineSet
EndChar

StartChar: u
Encoding: 117 117 20
Width: 1429
VWidth: 0
Flags: HW
HStem: 0 409<409 818> 1002 20G<0 409 818 1227>
VStem: 0 409<409 1022> 818 409<409 1022>
LayerCount: 2
Fore
SplineSet
0 0 m 25
 0 1022 l 25
 409 1022 l 25
 409 409 l 25
 818 409 l 25
 818 1022 l 25
 1227 1022 l 25
 1227 -204 l 25
 818 0 l 25
 0 0 l 25
EndSplineSet
EndChar

StartChar: v
Encoding: 118 118 21
Width: 1429
VWidth: 0
Flags: HW
HStem: 0 409<409 818> 1002 20G<0 409 818 1227>
VStem: 0 409<409 1022> 818 409<409 1022>
LayerCount: 2
Fore
SplineSet
0 0 m 25
 0 1022 l 25
 409 1022 l 25
 409 409 l 25
 818 409 l 25
 818 1022 l 25
 1227 1022 l 25
 1227 0 l 25
 0 0 l 25
EndSplineSet
EndChar

StartChar: w
Encoding: 119 119 22
Width: 1837
VWidth: 0
Flags: HW
HStem: 0 409<409 613 1022 1227> 1002 20G<0 409 613 1022 1227 1635>
VStem: 0 409<409 1022> 613 409<409 1022> 1227 409<409 1022>
CounterMasks: 1 38
LayerCount: 2
Fore
SplineSet
0 0 m 25
 0 1022 l 25
 409 1022 l 25
 409 409 l 25
 613 409 l 25
 613 1022 l 25
 1022 1022 l 25
 1022 409 l 25
 1227 409 l 25
 1227 1022 l 25
 1635 1022 l 25
 1635 0 l 25
 0 0 l 25
EndSplineSet
EndChar

StartChar: x
Encoding: 120 120 23
Width: 1429
VWidth: 0
Flags: HW
HStem: 0 409<0 409 818 1227> 613 409<0 409 818 1227>
LayerCount: 2
Fore
SplineSet
0 0 m 25
 0 409 l 25
 409 409 l 25
 409 613 l 25
 0 613 l 25
 0 1022 l 25
 1227 1022 l 25
 1227 613 l 25
 818 613 l 25
 818 409 l 25
 1227 409 l 25
 1227 0 l 25
 0 0 l 25
EndSplineSet
EndChar

StartChar: y
Encoding: 121 121 24
Width: 1429
VWidth: 0
Flags: HW
HStem: -613 409<409 818> 0 409<409 818> 1002 20G<0 409 818 1227>
VStem: 0 409<409 1022> 818 409<-204 0 409 1022>
LayerCount: 2
Fore
SplineSet
0 0 m 25
 0 1022 l 25
 409 1022 l 25
 409 409 l 25
 818 409 l 25
 818 1022 l 25
 1227 1022 l 25
 1227 -613 l 25
 409 -613 l 25
 409 -204 l 25
 818 -204 l 25
 818 0 l 25
 0 0 l 25
EndSplineSet
EndChar

StartChar: z
Encoding: 122 122 25
Width: 1429
VWidth: 0
Flags: HW
HStem: 0 409<818 1227> 613 409<0 409>
LayerCount: 2
Fore
SplineSet
1227 1022 m 25
 1227 613 l 1
 818 409 l 1
 1227 409 l 1
 1227 0 l 25
 0 0 l 25
 0 409 l 25
 409 613 l 25
 0 613 l 25
 0 1022 l 25
 1227 1022 l 25
EndSplineSet
EndChar

StartChar: G
Encoding: 71 71 27
Width: 1429
VWidth: 0
Flags: HW
LayerCount: 2
Fore
SplineSet
0 0 m 25
 0 1431 l 25
 1227 1431 l 25
 1227 1022 l 25
 409 1022 l 25
 409 409 l 25
 820 409 l 25
 820 613 l 1
 1227 613 l 29
 1227 -204 l 1
 818 -204 l 25
 818 0 l 25
 0 0 l 25
EndSplineSet
EndChar

StartChar: at
Encoding: 64 64 28
Width: 1838
VWidth: 0
Flags: HWO
LayerCount: 2
Fore
SplineSet
614 613 m 1
 614 0 l 1
 1636 0 l 1
 1636 1226 l 1
 0 1226 l 1
 0 204 l 1
 409 0 l 1
 409 818 l 1
 1227 818 l 1
 1227 409 l 1
 1022 409 l 1
 1022 613 l 1
 614 613 l 1
EndSplineSet
EndChar

StartChar: .notdef
Encoding: 65536 -1 29
Width: 2047
VWidth: 0
Flags: HW
HStem: 0 204<615 1433> 1022 204<615 1433>
VStem: 411 204<204 1022> 1433 204<204 1022>
LayerCount: 2
Fore
SplineSet
1433 204 m 25
 1433 1022 l 17
 1161 1022 887 1022 615 1022 c 9
 615 204 l 25
 1433 204 l 25
411 0 m 25
 411 1226 l 25
 1637 1226 l 25
 1637 0 l 25
 411 0 l 25
EndSplineSet
Comment: "Montserrat defines the .notdef glyph beyond the Unicode most-significant character (0xFFFF) to have the address 0x10000.+AAoACgAA-http://unicode.org/charts/PDF/U25A0.pdf+AAoA-https://www.microsoft.com/typography/otspec/recom.htm"
EndChar
